<svg xmlns="http://www.w3.org/2000/svg" viewBox="0 0 512 512">
    <!--! Font Awesome Pro 6.2.0 by @fontawesome - https://fontawesome.com License - https://fontawesome.com/license (Commercial License) Copyright 2022 Fonticons, Inc. -->
    <path transform="scale(0.9), translate(25.6,25.6)"
        d="M96 96c0-13.3 10.7-24 24-24h48c13.3 0 24 10.7 24 24v113.5l117.5-63.3c12-6.5 26.5 2.3 26.5 15.8v47.4l117.5-63.3c12-6.5 26.5 2.3 26.5 15.8V272v96c0 19.9-16.1 36-36 36H68c-19.9 0-36-16.1-36-36v-60-36V96zM270 280c-6.6 0-12 5.4-12 12v36c0 6.6 5.4 12 12 12h36c6.6 0 12-5.4 12-12v-36c0-6.6-5.4-12-12-12h-36zM162 292v36c0 6.6 5.4 12 12 12h36c6.6 0 12-5.4 12-12v-36c0-6.6-5.4-12-12-12h-36c-6.6 0-12 5.4-12 12zm204-12c-6.6 0-12 5.4-12 12v36c0 6.6 5.4 12 12 12h36c6.6 0 12-5.4 12-12v-36c0-6.6-5.4-12-12-12h-36z" />
</svg>